<svg id="Слой_1" xmlns="http://www.w3.org/2000/svg" width="6.2" height="6.7" viewBox="0 0 6.2 6.7"><path d="M1.7,6.7c0.6-0.3,1.1-0.9,1.2-1.5l0.1-0.6L2.4,5C1.9,5.5,1,5.5,0.4,5C0.1,4.7,0,4.4,0,4l0,0	c0-0.1,0-0.2,0.1-0.3c0-0.1,0-0.2,0.1-0.3c0.1-0.1,0.1-0.3,0.3-0.4c0,0,0,0,0,0l0,0c0.1-0.1,0.3-0.2,0.4-0.4C1.6,2,2.7,1.1,3.1,0	c0.5,1.1,1.5,2,2.2,2.6c0,0,0,0,0.1,0c0,0,0,0,0,0C5.6,2.8,5.7,3,5.8,3.1l0,0c0,0,0.1,0.1,0.1,0.1C6,3.3,6.1,3.4,6.1,3.5	c0,0.1,0.1,0.2,0.1,0.3c0,0.1,0,0.2,0,0.2l0,0c0,0.3-0.1,0.7-0.4,0.9c-0.6,0.5-1.5,0.5-2,0L3.3,4.5l0.1,0.6c0.1,0.7,0.5,1.2,1.2,1.5	H3.1H1.7z" fill="#18635e"/></svg>