<svg id="Слой_1" xmlns="http://www.w3.org/2000/svg" width="13.6" height="13.6" viewBox="0 0 13.6 13.6"><path d="M6.8,0C8,0,9.1,0.3,10.2,0.9c1,0.6,1.9,1.4,2.5,2.5c0.6,1,0.9,2.2,0.9,3.4s-0.3,2.4-0.9,3.4	c-0.6,1-1.4,1.9-2.5,2.5c-1,0.6-2.2,0.9-3.4,0.9s-2.4-0.3-3.4-0.9c-1-0.6-1.9-1.4-2.5-2.5C0.3,9.1,0,8,0,6.8s0.3-2.4,0.9-3.4	c0.6-1,1.4-1.9,2.5-2.5C4.4,0.3,5.6,0,6.8,0z M6.8,12.3c1,0,1.9-0.2,2.7-0.7c0.8-0.5,1.5-1.2,2-2c0.5-0.8,0.7-1.7,0.7-2.7	S12,4.9,11.5,4c-0.5-0.8-1.2-1.5-2-2C8.7,1.6,7.8,1.3,6.8,1.3S4.9,1.6,4,2.1c-0.8,0.5-1.5,1.2-2,2C1.6,4.9,1.3,5.8,1.3,6.8	s0.2,1.9,0.7,2.7c0.5,0.8,1.2,1.5,2,2C4.9,12,5.8,12.3,6.8,12.3z M5.9,3.6c0-0.1,0-0.2,0.1-0.2c0.1-0.1,0.1-0.1,0.2-0.1h1.1	c0.1,0,0.2,0,0.2,0.1c0.1,0.1,0.1,0.1,0.1,0.2v3.2h1.8c0.1,0,0.2,0.1,0.3,0.2c0.1,0.1,0,0.3-0.1,0.3L7,10c-0.1,0.1-0.2,0.1-0.2,0.1	c-0.1,0-0.2,0-0.2-0.1L3.9,7.3C3.7,7.2,3.7,7.1,3.8,7c0.1-0.1,0.2-0.2,0.3-0.2h1.8V3.6z" fill="#02ffce"/></svg>