<svg id="Слой_1" xmlns="http://www.w3.org/2000/svg" width="9.5" height="9.5" viewBox="0 0 9.5 9.5"><path d="M5.8,4.7l3.6-3.6C9.4,1.1,9.5,1,9.5,0.9c0-0.1,0-0.2-0.1-0.2L8.8,0.1C8.7,0,8.6,0,8.5,0C8.4,0,8.4,0,8.3,0.1	L4.7,3.6L1.2,0.1C1.1,0,1,0,0.9,0C0.8,0,0.8,0,0.7,0.1L0.1,0.7C0,0.8,0,0.8,0,0.9C0,1,0,1.1,0.1,1.2l3.6,3.6L0.1,8.3	C0,8.4,0,8.4,0,8.5c0,0.1,0,0.2,0.1,0.2l0.6,0.6c0.1,0.1,0.1,0.1,0.2,0.1c0.1,0,0.2,0,0.2-0.1l3.6-3.6l3.6,3.6	c0.1,0.1,0.2,0.1,0.2,0.1c0.1,0,0.2,0,0.2-0.1l0.6-0.6c0.1-0.1,0.1-0.1,0.1-0.2c0-0.1,0-0.2-0.1-0.2L5.8,4.7z" fill="#fc0254"/></svg>