<svg id="Слой_1" xmlns="http://www.w3.org/2000/svg" width="12.3" height="14" viewBox="0 0 12.3 14"><path d="M11.9,1.8c0.3,0.3,0.4,0.6,0.4,0.9v7.3c0,0.4-0.1,0.7-0.4,0.9c-0.3,0.3-0.6,0.4-0.9,0.4H8.8v1.3	c0,0.4-0.1,0.7-0.4,0.9C8.1,13.9,7.8,14,7.4,14H1.3c-0.4,0-0.7-0.1-0.9-0.4C0.1,13.4,0,13.1,0,12.7V3.9C0,3.6,0.1,3.3,0.4,3	s0.6-0.4,0.9-0.4h2.2V1.3c0-0.4,0.1-0.7,0.4-0.9S4.4,0,4.8,0h4.7c0.4,0,0.7,0.1,0.9,0.4L11.9,1.8z M7.3,12.7c0,0,0.1,0,0.1-0.1	c0,0,0.1-0.1,0.1-0.1v-1.1H4.8c-0.4,0-0.7-0.1-0.9-0.4c-0.3-0.3-0.4-0.6-0.4-0.9V3.9h-2c0,0-0.1,0-0.1,0.1c0,0-0.1,0.1-0.1,0.1v8.4	c0,0,0,0.1,0.1,0.1c0,0,0.1,0.1,0.1,0.1H7.3z M10.8,10.1c0,0,0.1,0,0.1-0.1c0,0,0.1-0.1,0.1-0.1V4.4H8.5c-0.2,0-0.3-0.1-0.5-0.2	C7.9,4.1,7.9,3.9,7.9,3.7V1.3H5c0,0-0.1,0-0.1,0.1c0,0-0.1,0.1-0.1,0.1v8.4c0,0,0,0.1,0.1,0.1c0,0,0.1,0.1,0.1,0.1H10.8z M10.9,3.1	V2.8c0,0,0-0.1-0.1-0.1L9.6,1.4c0,0-0.1-0.1-0.1-0.1H9.2v1.8H10.9z" fill="#02ffce"/></svg>