<svg id="Слой_1" xmlns="http://www.w3.org/2000/svg" width="17.8" height="20.2" viewBox="0 0 17.8 20.2"><style>.st0{fill:#02ffce}</style><path class="st0" d="M16,3.6h-4.2V1.8c0-1-0.8-1.8-1.8-1.8H7.7c-1,0-1.8,0.8-1.8,1.8v1.8H1.8C0.8,3.6,0,4.4,0,5.3v2.4 c0,0.4,0.2,0.6,0.6,0.6h0.6v8.9c0,1.6,1.3,3,3,3h9.5c1.7,0,3-1.3,3-3V8.3h0.6c0.4,0,0.6-0.4,0.6-0.6V5.3C17.8,4.4,17,3.6,16,3.6z M7.1,1.8c0-0.4,0.2-0.6,0.6-0.6h2.4c0.4,0,0.6,0.2,0.6,0.6v1.8H7.1V1.8z M15.4,17.2c0,1-0.8,1.8-1.8,1.8H4.2 c-1,0-1.8-0.8-1.8-1.8V8.3h13.1V17.2z M16.6,7.1H16c0,0,0,0,0,0s0,0,0,0H1.8c0,0,0,0,0,0s0,0,0,0H1.2V5.3c0-0.4,0.2-0.6,0.6-0.6 H16c0.4,0,0.6,0.2,0.6,0.6V7.1z"/><path class="st0" d="M5.3,16.6c0.4,0,0.6-0.2,0.6-0.6v-4.7c0-0.4-0.2-0.6-0.6-0.6c-0.4,0-0.6,0.2-0.6,0.6V16 C4.7,16.4,5,16.6,5.3,16.6z"/><path class="st0" d="M8.9,16.6c0.4,0,0.6-0.2,0.6-0.6v-4.7c0-0.4-0.2-0.6-0.6-0.6s-0.6,0.2-0.6,0.6V16C8.3,16.4,8.5,16.6,8.9,16.6 z"/><path class="st0" d="M12.5,16.6c0.4,0,0.6-0.2,0.6-0.6v-4.7c0-0.4-0.2-0.6-0.6-0.6s-0.6,0.2-0.6,0.6V16 C11.9,16.4,12.1,16.6,12.5,16.6z"/></svg>