<svg id="Слой_1" xmlns="http://www.w3.org/2000/svg" width="24.8" height="21.2" viewBox="0 0 24.8 21.2"><path d="M20.4,4h-3.1V2.4c0-1.3-1.1-2.4-2.4-2.4h-4.6C8.8,0,7.8,1.1,7.8,2.4V4H4.5C2.6,4,1.1,5.4,1.1,7.3v10.6	c0,1.8,1.5,3.3,3.3,3.3h15.9c1.9,0,3.3-1.5,3.3-3.3V7.3C23.7,5.4,22.2,4,20.4,4z M9.1,2.4c0-0.7,0.6-1.1,1.1-1.1h4.6	c0.7,0,1.1,0.6,1.1,1.1V4H9.1V2.4z M4.5,5.3h15.9c1.1,0,2,0.9,2,2v3.3H17V9.9c0-0.4-0.2-0.7-0.7-0.7s-0.7,0.2-0.7,0.7v0.7H9.1V9.9	c0-0.4-0.2-0.7-0.7-0.7S7.8,9.5,7.8,9.9v0.7H2.5V7.3C2.5,6.2,3.4,5.3,4.5,5.3z M20.4,19.9H4.5c-1.1,0-2-0.9-2-2v-6h5.3v0.7	c0,0.4,0.2,0.7,0.7,0.7s0.7-0.2,0.7-0.7v-0.7h6.6v0.7c0,0.4,0.2,0.7,0.7,0.7S17,13,17,12.6v-0.7h5.3v6	C22.3,18.9,21.4,19.9,20.4,19.9z" fill="#fff"/></svg>