<svg id="Слой_1" xmlns="http://www.w3.org/2000/svg" width="14" height="10.5" viewBox="0 0 14 10.5"><path d="M7.4,1.3c0-0.4,0.1-0.7,0.4-0.9C8.1,0.1,8.4,0,8.7,0c0.4,0,0.7,0.1,0.9,0.4l3.9,3.9C13.9,4.6,14,4.9,14,5.3	c0,0.4-0.1,0.7-0.4,0.9l-3.9,3.9c-0.3,0.3-0.6,0.4-0.9,0.4c-0.4,0-0.7-0.1-0.9-0.4C7.6,9.9,7.4,9.6,7.4,9.2V7.8H4.8	c-0.4,0-0.7-0.1-0.9-0.4S3.5,6.8,3.5,6.5V4.1c0-0.4,0.1-0.7,0.4-0.9s0.6-0.4,0.9-0.4h2.6V1.3z M12.7,5.3L8.8,1.3v2.7H4.8v2.4h3.9	v2.7L12.7,5.3z M2.6,0C1.9,0,1.3,0.3,0.8,0.8S0,1.9,0,2.6v5.3c0,0.7,0.3,1.3,0.8,1.9c0.5,0.5,1.1,0.8,1.9,0.8h2.3	c0.1,0,0.2,0,0.2-0.1c0.1-0.1,0.1-0.1,0.1-0.2V9.5c0-0.1,0-0.2-0.1-0.2C5.1,9.2,5,9.2,4.9,9.2H2.6C2.3,9.2,2,9.1,1.7,8.8	C1.4,8.6,1.3,8.3,1.3,7.9V2.6c0-0.4,0.1-0.7,0.4-0.9s0.6-0.4,0.9-0.4h2.3c0.1,0,0.2,0,0.2-0.1C5.2,1.2,5.3,1.1,5.3,1V0.3	c0-0.1,0-0.2-0.1-0.2C5.1,0,5,0,4.9,0H2.6z" fill="#02ffce"/></svg>