<svg id="Слой_1" xmlns="http://www.w3.org/2000/svg" width="24.8" height="21.2" viewBox="0 0 24.8 21.2"><style>.st0{fill:#fff}</style><path class="st0" d="M13.7,19.3L13.7,19.3c-1,0-1.6-0.4-1.7-0.4c-0.1,0-0.2-0.2-0.2-0.2c0-0.2-0.5-0.8-0.4-1.8 C10.2,16.7,9.2,16,8,15C7,14,6.4,12.8,6.2,11.6c-1.1,0-1.8-0.4-1.8-0.4c-0.2,0-0.2-0.2-0.2-0.2c-0.2-0.2-1.7-2.8,2-6.5 c1.6-1.6,3.3-1.8,4.6-0.8l0,0c0.2-0.2,0.4-0.4,0.5-0.4c3.2-2.6,5.8-3,7.5-3c2,0,3,0.8,3,0.8c0.2,0,0.2,0.2,0.2,0.2 c0.2,0.2,2.6,4.4-2.4,10.5l0,0c-0.2,0.2-0.2,0.2-0.4,0.5l0,0c1.1,1.4,0.8,3-0.8,4.6C16.5,18.8,14.8,19.3,13.7,19.3z M12.7,17.8 c0.2,0.2,0.5,0.2,1,0.2l0,0c0.8,0,2.3-0.4,4-2c1.6-1.6,1-2.7,0.4-3.3c-0.4-0.4-0.2-0.8,0.4-1.2c0.2-0.2,0.2-0.2,0.2-0.2 s0-0.2,0.2-0.2c4-5,2.8-8.3,2.4-9.1c-0.2-0.2-1.1-0.5-2.3-0.5c-1.4,0-3.9,0.5-6.8,2.9c0,0-0.2,0-0.2,0.2c-0.2,0-0.2,0.2-0.2,0.2 c-0.5,0.4-0.6,0.5-0.8,0.5l0,0c-0.2,0-0.4-0.2-0.5-0.2c-1-1-2-0.8-3.3,0.4c-2.6,2.6-2.2,4.4-2,4.9c0.2,0.2,0.8,0.2,1.6,0.2 c0.2,0,0.4,0,0.5,0.2c0.2,0.2,0.2,0.2,0.2,0.5c0,1.1,0.5,2.2,1.6,3.2c1,1,2,1.6,3.2,1.6c0.2,0,0.4,0.2,0.5,0.2 c0.2,0.2,0.2,0.4,0.2,0.5C12.5,17.1,12.6,17.6,12.7,17.8z"/><path class="st0" d="M3.4,20.1c-0.2,0-0.4,0-0.5-0.2c-0.2-0.2-0.2-0.6,0-0.8l3-3c0.2-0.2,0.6-0.2,0.8,0c0.2,0.2,0.2,0.6,0,0.8 l-2.9,2.9C3.8,20,3.6,20.1,3.4,20.1z"/><path class="st0" d="M2.7,16.2c-0.2,0-0.4,0-0.5-0.2c-0.2-0.2-0.2-0.6,0-0.8l1.6-1.6c0.2-0.2,0.6-0.2,0.8,0 c0.2,0.2,0.2,0.6,0,0.8L3,16.1C3,16.2,2.8,16.2,2.7,16.2z"/><path class="st0" d="M7.3,20.9c-0.2,0-0.4,0-0.5-0.2c-0.2-0.2-0.2-0.6,0-0.8l1.6-1.6c0.2-0.2,0.6-0.2,0.8,0 c0.2,0.2,0.2,0.6,0,0.8l-1.6,1.6C7.5,20.9,7.4,20.9,7.3,20.9z"/><path class="st0" d="M14.9,10.8c-0.8,0-1.4-0.2-2-0.8c-1.1-1.1-1.1-2.8,0-3.9s2.9-1.1,3.9,0c0.5,0.5,0.8,1.2,0.8,2 c0,0.8-0.2,1.4-0.8,2C16.4,10.4,15.6,10.8,14.9,10.8z M14.9,6.5c-0.4,0-0.8,0.2-1.1,0.5c-0.6,0.6-0.6,1.6,0,2.2 c0.6,0.6,1.6,0.6,2.2,0c0.2-0.2,0.5-0.8,0.5-1.1c0-0.4-0.2-0.8-0.5-1.1C15.8,6.8,15.4,6.5,14.9,6.5z"/></svg>