<svg id="Слой_1" xmlns="http://www.w3.org/2000/svg" width="24.8" height="20.2" viewBox="0 0 24.8 20.2"><style>.st0{fill:#fff}</style><path class="st0" d="M21.4,2.9H10.5c-0.5,0-0.8-0.3-0.8-0.8s0.3-0.8,0.8-0.8h10.9c0.5,0,0.8,0.3,0.8,0.8 C22.2,2.6,21.9,2.9,21.4,2.9z"/><path class="st0" d="M21.4,10.9H10.5c-0.5,0-0.8-0.3-0.8-0.8s0.3-0.8,0.8-0.8h10.9c0.5,0,0.8,0.3,0.8,0.8 C22.2,10.6,21.9,10.9,21.4,10.9z"/><path class="st0" d="M21.4,18.9H10.5c-0.5,0-0.8-0.3-0.8-0.8s0.3-0.8,0.8-0.8h10.9c0.5,0,0.8,0.3,0.8,0.8 C22.2,18.6,21.9,18.9,21.4,18.9z"/><path class="st0" d="M4.5,3.7c-0.3,0-0.6-0.2-1-0.3L2.9,2.8C2.6,2.5,2.6,2,2.9,1.7s0.8-0.3,1.1,0L4.3,2l1.1-1.3 c0.3-0.3,0.8-0.3,1.1,0c0.3,0.3,0.3,0.8,0,1.1L5.1,3.2C5.1,3.6,4.8,3.7,4.5,3.7L4.5,3.7z"/><path class="st0" d="M4.5,11.7c-0.3,0-0.6-0.2-1-0.3l-0.6-0.6c-0.3-0.3-0.3-0.8,0-1.1s0.8-0.3,1.1,0L4.3,10l1.1-1.3 c0.3-0.3,0.8-0.3,1.1,0c0.3,0.3,0.3,0.8,0,1.1l-1.4,1.4C5.1,11.6,4.8,11.7,4.5,11.7L4.5,11.7z"/><path class="st0" d="M4.5,19.7c-0.3,0-0.6-0.2-1-0.3l-0.6-0.6c-0.3-0.3-0.3-0.8,0-1.1s0.8-0.3,1.1,0L4.3,18l1.1-1.3 c0.3-0.3,0.8-0.3,1.1,0c0.3,0.3,0.3,0.8,0,1.1l-1.4,1.4C5.1,19.6,4.8,19.7,4.5,19.7L4.5,19.7z"/></svg>