<svg id="Слой_1" xmlns="http://www.w3.org/2000/svg" width="14" height="10.5" viewBox="0 0 14 10.5"><path d="M11,5.3c0.1,0,0.2,0,0.2-0.1c0.1-0.1,0.1-0.1,0.1-0.2V4.5c0-0.1,0-0.2-0.1-0.2S11.1,4.2,11,4.2H8.2	C8.1,4.2,8,4.2,8,4.3C7.9,4.3,7.9,4.4,7.9,4.5v0.4c0,0.1,0,0.2,0.1,0.2C8,5.2,8.1,5.3,8.2,5.3H11z M11.4,6.9c0,0.1,0,0.2-0.1,0.2	c-0.1,0.1-0.1,0.1-0.2,0.1H8.2C8.1,7.2,8,7.2,8,7.1C7.9,7.1,7.9,7,7.9,6.9V6.5c0-0.1,0-0.2,0.1-0.2C8,6.2,8.1,6.1,8.2,6.1H11	c0.1,0,0.2,0,0.2,0.1s0.1,0.1,0.1,0.2V6.9z M14,1.3c0-0.4-0.1-0.7-0.4-0.9C13.4,0.1,13.1,0,12.7,0H1.3C0.9,0,0.6,0.1,0.4,0.4	S0,0.9,0,1.3v7.9c0,0.4,0.1,0.7,0.4,0.9c0.3,0.3,0.6,0.4,0.9,0.4h11.4c0.4,0,0.7-0.1,0.9-0.4C13.9,9.9,14,9.6,14,9.2V1.3z M12.7,9	c0,0,0,0.1-0.1,0.1c0,0-0.1,0.1-0.1,0.1h-11c0,0-0.1,0-0.1-0.1c0,0-0.1-0.1-0.1-0.1V2.2h11.4V9z M4.8,3.5c-0.4,0-0.7,0.1-1,0.4	s-0.4,0.6-0.4,1s0.1,0.7,0.4,1c0.3,0.3,0.6,0.4,1,0.4s0.7-0.1,1-0.4c0.3-0.3,0.4-0.6,0.4-1S6,4.2,5.8,3.9S5.2,3.5,4.8,3.5z M6.4,6.3	c0.2,0.1,0.3,0.2,0.5,0.3C6.9,6.8,7,7,7,7.1v0.3c0,0.1,0,0.2-0.1,0.3C6.8,7.8,6.7,7.9,6.6,7.9H3c-0.1,0-0.2,0-0.3-0.1	C2.7,7.7,2.6,7.6,2.6,7.5V7.1c0-0.2,0.1-0.3,0.2-0.5c0.1-0.1,0.3-0.2,0.5-0.3l0.6-0.1c0.3,0.2,0.6,0.3,0.9,0.3c0.3,0,0.7-0.1,1-0.3	L6.4,6.3z" fill="#21202e"/></svg>