<svg id="Слой_1" xmlns="http://www.w3.org/2000/svg" width="16" height="16" viewBox="0 0 16 16"><path d="M10,1.5c-0.8,0-1.6,0.2-2.3,0.6c-0.7,0.4-1.2,1-1.6,1.6C5.7,4.4,5.5,5.2,5.5,6c0,0.4,0.1,0.9,0.2,1.3l-4.2,4.2	v3h3V13H6v-1.5h1l1.3-1.3c0.5,0.2,1.1,0.3,1.7,0.3c0.8,0,1.6-0.2,2.3-0.6c0.7-0.4,1.2-1,1.6-1.6c0.4-0.7,0.6-1.4,0.6-2.3	s-0.2-1.6-0.6-2.3c-0.4-0.7-1-1.2-1.6-1.6C11.6,1.7,10.8,1.5,10,1.5z M10,0c1.1,0,2.1,0.3,3,0.8c0.9,0.5,1.6,1.3,2.2,2.2	C15.7,3.9,16,4.9,16,6s-0.3,2.1-0.8,3c-0.5,0.9-1.3,1.6-2.2,2.2c-0.9,0.5-1.9,0.8-3,0.8c-0.4,0-0.8,0-1.3-0.1l-1.3,1.3v0.6	c0,0.2-0.1,0.4-0.2,0.5c-0.1,0.1-0.3,0.2-0.5,0.2H6v0.8c0,0.2-0.1,0.4-0.2,0.5C5.6,15.9,5.5,16,5.3,16H0.8c-0.2,0-0.4-0.1-0.5-0.2	C0.1,15.6,0,15.5,0,15.3v-4.1c0-0.2,0.1-0.4,0.2-0.5l3.8-3.8C4,6.5,4,6.3,4,6c0-1.1,0.3-2.1,0.8-3S6.1,1.4,7,0.8S8.9,0,10,0z M10,4.5c0-0.4,0.1-0.8,0.4-1.1C10.7,3.1,11.1,3,11.5,3c0.4,0,0.8,0.1,1.1,0.4C12.9,3.7,13,4.1,13,4.5s-0.1,0.8-0.4,1.1	C12.3,5.9,11.9,6,11.5,6c-0.4,0-0.8-0.1-1.1-0.4C10.1,5.3,10,4.9,10,4.5z" fill="#02ffce"/></svg>