<svg id="Слой_1" xmlns="http://www.w3.org/2000/svg" width="24.8" height="21.2" viewBox="0 0 24.8 21.2"><style>.st0{fill:#fff}</style><path class="st0" d="M9.5,20.2c-2,0-3.8-1-5-2.7c-1.3-2-1.3-4.6,0.2-6.6c1.2-1.5,2.8-2.5,4.8-2.5c0.7,0,1.5,0.1,2.2,0.4L14.6,6 l-1.3-1.3c-0.7-0.7-0.7-1.7,0-2.3l0.9-0.9c0.6-0.6,1.7-0.6,2.3,0l1.3,1.3l0.4-0.4c0.6-0.6,1.7-0.6,2.3,0l0.9,0.9 c0.7,0.7,0.7,1.7,0,2.3l-6.6,6.6c0.8,2.2,0.4,4.6-1.3,6.2C12.5,19.6,11.2,20.2,9.5,20.2z M9.5,9.6c-1.5,0-2.9,0.7-3.8,2 c-1.2,1.5-1.2,3.7-0.1,5.4c0.9,1.4,2.3,2.2,3.9,2.2c1.3,0,2.5-0.4,3.3-1.4c1.4-1.4,1.7-3.6,0.9-5.4c-0.1-0.2-0.1-0.4,0.1-0.7 l7-7C21,4.5,21,4.1,20.8,4L19.9,3c-0.2-0.2-0.6-0.2-0.7,0L18.2,4c-0.2,0.2-0.6,0.2-0.8,0l-1.9-1.9c-0.2-0.2-0.6-0.2-0.7,0 L13.8,3c-0.2,0.2-0.2,0.6,0,0.7l1.7,1.7c0.1,0.1,0.1,0.2,0.1,0.4c0,0.2-0.1,0.4-0.1,0.4L12,10c-0.1,0.2-0.4,0.2-0.7,0.1 C10.9,9.7,10.2,9.6,9.5,9.6z"/><path class="st0" d="M9.5,16.6c-0.6,0-1.2-0.2-1.6-0.7c-0.4-0.5-0.7-1-0.7-1.6c0-0.6,0.2-1.2,0.7-1.6c0.9-0.9,2.5-0.9,3.3,0 c0.4,0.4,0.7,1,0.7,1.6c0,0.6-0.2,1.2-0.7,1.6C10.7,16.3,10.1,16.6,9.5,16.6z M9.5,13.1c-0.4,0-0.6,0.1-0.8,0.4 c-0.2,0.2-0.4,0.4-0.4,0.8s0.1,0.6,0.4,0.8c0.4,0.4,1.2,0.4,1.6,0c0.2-0.2,0.4-0.4,0.4-0.8s-0.1-0.6-0.4-0.8 C10.1,13.2,9.9,13.1,9.5,13.1z"/></svg>