<svg id="Слой_1" xmlns="http://www.w3.org/2000/svg" width="17.5" height="12.3" viewBox="0 0 17.5 12.3"><path d="M7.4,1.3c-0.6,0-1.2,0.2-1.8,0.5C5.1,2.1,4.7,2.5,4.4,3C4.1,3.6,3.9,4.2,3.9,4.8v0c-0.7,0.1-1.4,0.5-1.9,1	c-0.5,0.6-0.8,1.2-0.8,2c0,0.5,0.1,1.1,0.4,1.5c0.3,0.5,0.6,0.8,1.1,1.1c0.5,0.3,1,0.4,1.5,0.4h9.2c0.7,0,1.3-0.3,1.9-0.8	s0.8-1.1,0.8-1.9c0-0.7-0.3-1.3-0.8-1.9s-1.1-0.8-1.9-0.8h-0.2c0.2-0.3,0.2-0.6,0.2-0.9c0-0.5-0.2-0.9-0.5-1.2	c-0.3-0.3-0.8-0.5-1.2-0.5c-0.4,0-0.8,0.1-1.1,0.4C10.4,2.8,10,2.3,9.4,1.9C8.8,1.5,8.2,1.3,7.4,1.3z M7.4,0c0.7,0,1.4,0.2,2.1,0.5	c0.7,0.3,1.2,0.8,1.7,1.3c0.2,0,0.4-0.1,0.6-0.1c0.8,0,1.5,0.3,2.1,0.8c0.6,0.5,0.9,1.2,1,2c0.8,0.3,1.4,0.8,1.9,1.4	c0.5,0.7,0.7,1.4,0.7,2.3c0,0.7-0.2,1.4-0.5,2c-0.4,0.6-0.8,1.1-1.4,1.4c-0.6,0.4-1.3,0.5-2,0.5H4.4c-0.8,0-1.5-0.2-2.2-0.6	S1,10.7,0.6,10.1C0.2,9.4,0,8.7,0,7.9C0,7,0.3,6.2,0.8,5.4c0.5-0.7,1.2-1.3,2-1.6c0.2-1.1,0.8-2,1.7-2.7C5.3,0.4,6.3,0,7.4,0z M7.2,3.8c0-0.1,0-0.2,0.1-0.2c0.1-0.1,0.1-0.1,0.2-0.1h0.7c0.1,0,0.2,0,0.2,0.1c0.1,0.1,0.1,0.1,0.1,0.2v3.8L10,6.1	C10.1,6.1,10.2,6,10.3,6s0.2,0,0.2,0.1l0.4,0.4C11,6.6,11,6.7,11,6.8C11,6.9,11,7,10.9,7L8.1,9.9C8,9.9,8,10,7.9,10	c-0.1,0-0.2,0-0.2-0.1L4.8,7C4.7,7,4.7,6.9,4.7,6.8c0-0.1,0-0.2,0.1-0.2l0.4-0.4C5.3,6.1,5.4,6,5.5,6c0.1,0,0.2,0,0.2,0.1l1.5,1.5	V3.8z" fill="#21202e"/></svg>