<svg id="Слой_1" xmlns="http://www.w3.org/2000/svg" width="14" height="16" viewBox="0 0 14 16"><path d="M12.5,7.5c0.4,0,0.8,0.1,1.1,0.4C13.9,8.2,14,8.6,14,9v5.5c0,0.4-0.1,0.8-0.4,1.1c-0.3,0.3-0.6,0.4-1.1,0.4h-11	c-0.4,0-0.8-0.1-1.1-0.4C0.1,15.3,0,14.9,0,14.5V9c0-0.4,0.1-0.8,0.4-1.1c0.3-0.3,0.6-0.4,1.1-0.4h1v-3c0-0.8,0.2-1.6,0.6-2.3	c0.4-0.7,1-1.2,1.6-1.6C5.4,0.2,6.2,0,7,0s1.6,0.2,2.3,0.6c0.7,0.4,1.2,1,1.6,1.7c0.4,0.7,0.6,1.5,0.6,2.3v0.7	c0,0.2-0.1,0.4-0.2,0.5C11.1,5.9,11,6,10.8,6c-0.2,0-0.4-0.1-0.5-0.2C10.1,5.6,10,5.5,10,5.3V4.5C10,3.7,9.7,3,9.1,2.4	C8.5,1.8,7.8,1.5,7,1.5c-0.8,0-1.5,0.3-2.1,0.9C4.3,3,4,3.7,4,4.5v3H12.5z M12.5,14.5V9h-11v5.5H12.5z" fill="#02ffce"/></svg>