<svg id="Слой_1" xmlns="http://www.w3.org/2000/svg" width="13.6" height="13.6" viewBox="0 0 13.6 13.6"><path d="M13,0.5c0.1-0.1,0.2-0.1,0.3-0.1c0.1,0.1,0.2,0.2,0.2,0.3v3.9c0,0.1,0,0.2-0.1,0.2S13.3,5,13.2,5H9.3	C9.2,5,9.1,5,9,4.8C9,4.7,9,4.6,9.1,4.5L10.6,3c-0.5-0.5-1.1-0.9-1.7-1.1C8.2,1.6,7.5,1.4,6.8,1.4C5.9,1.4,5,1.6,4.2,2.1	C3.4,2.5,2.7,3.1,2.2,3.9C1.8,4.7,1.5,5.6,1.4,6.5c0,0.1,0,0.1-0.1,0.2S1.2,6.8,1.1,6.8H0.3c-0.1,0-0.2,0-0.2-0.1S0,6.5,0,6.4	c0.1-1.2,0.4-2.2,1-3.2c0.6-1,1.4-1.8,2.4-2.3S5.6,0,6.8,0c0.9,0,1.8,0.2,2.6,0.5c0.8,0.3,1.6,0.8,2.2,1.5L13,0.5z M13.2,6.8	c0.1,0,0.2,0,0.2,0.1s0.1,0.2,0.1,0.3c-0.1,1.2-0.4,2.2-1,3.2c-0.6,1-1.4,1.8-2.4,2.3S8,13.6,6.8,13.6c-0.9,0-1.8-0.2-2.6-0.5	c-0.8-0.3-1.6-0.8-2.2-1.5L0.5,13c-0.1,0.1-0.2,0.1-0.3,0.1C0.1,13,0,12.9,0,12.8V8.9c0-0.1,0-0.2,0.1-0.2s0.1-0.1,0.2-0.1h3.9	c0.1,0,0.2,0.1,0.3,0.2c0.1,0.1,0,0.3-0.1,0.3L3,10.6c0.5,0.5,1.1,0.9,1.7,1.1c0.6,0.3,1.3,0.4,2.1,0.4c0.9,0,1.8-0.2,2.6-0.7	c0.8-0.4,1.4-1.1,1.9-1.8c0.5-0.8,0.8-1.6,0.8-2.6c0-0.1,0-0.1,0.1-0.2s0.1-0.1,0.2-0.1H13.2z" fill="#02ffce"/></svg>