<svg id="Слой_1" xmlns="http://www.w3.org/2000/svg" width="24.8" height="22.7" viewBox="0 0 24.8 22.7"><style>.st0{fill:#fff}</style><path class="st0" d="M12.4,14.6c-1.8,0-3.3-1.5-3.3-3.3s1.5-3.3,3.3-3.3s3.3,1.5,3.3,3.3S14.3,14.6,12.4,14.6z M12.4,9.4 c-1.1,0-2,0.9-2,2s0.9,2,2,2s2-0.9,2-2C14.4,10.3,13.5,9.4,12.4,9.4z"/><path class="st0" d="M13.3,22.5h-1.7c-0.8,0-1.5-0.7-1.5-1.5v-1.3c-0.5-0.2-1.1-0.4-1.5-0.7c-0.2,0-0.2,0-0.2,0l-0.9,0.9 c-0.5,0.5-1.5,0.5-2.2,0l-1.3-1.3c-0.7-0.7-0.7-1.5,0-2.2l0.9-0.9c0.2-0.2,0-0.2,0-0.2c-0.2-0.4-0.4-0.9-0.5-1.3 c0-0.2-0.2-0.2-0.2-0.2H2.9c-0.8,0-1.5-0.7-1.5-1.5v-1.7c0-0.8,0.7-1.5,1.5-1.5h1.1c0.2,0,0.2-0.2,0.2-0.2 c0.2-0.5,0.4-0.9,0.5-1.3c0-0.2,0-0.2,0-0.2L3.9,6.3c-0.7-0.7-0.7-1.5,0-2.2l1.3-1.3c0.5-0.5,1.5-0.5,2.2,0l0.9,0.9 c0.2,0.2,0.2,0.2,0.2,0c0.4-0.2,0.9-0.4,1.3-0.5C10,3.2,10,3.1,10,3V1.8c0-0.8,0.7-1.5,1.5-1.5h1.7c0.8,0,1.5,0.7,1.5,1.5V3 c0,0.2,0.2,0.2,0.2,0.2c0.4,0.2,0.9,0.4,1.3,0.5c0.2,0,0.2,0,0.2,0l0.9-0.9c0.5-0.5,1.5-0.5,2.2,0l1.3,1.3 c0.7,0.7,0.7,1.5,0,2.2L20,7.2c-0.2,0.2,0,0.2,0,0.2c0.2,0.4,0.4,0.9,0.5,1.3c0,0.2,0.2,0.2,0.2,0.2h1.1c0.8,0,1.5,0.7,1.5,1.5 v1.7c0,0.8-0.7,1.5-1.5,1.5h-1.1c-0.2,0-0.2,0.2-0.2,0.2c-0.2,0.5-0.4,0.9-0.5,1.3c0,0.2,0,0.2,0,0.2l0.9,0.9 c0.7,0.7,0.7,1.5,0,2.2l-1.3,1.3c-0.5,0.5-1.5,0.5-2.2,0l-0.9-0.9c-0.2-0.2-0.2-0.2-0.2,0c-0.4,0.2-0.9,0.4-1.3,0.5 c-0.2,0-0.2,0.2-0.2,0.2v1.1C14.8,21.8,14.2,22.5,13.3,22.5z M8.5,17.6c0.2,0,0.5,0,0.8,0.2c0.5,0.2,1.1,0.5,1.7,0.7 c0.2,0.2,0.5,0.4,0.5,0.7v1.8c0,0.2,0.2,0.2,0.2,0.2h1.7c0.2,0,0.2-0.2,0.2-0.2v-1.1c0-0.7,0.4-1.3,1.1-1.5 c0.4-0.2,0.8-0.2,1.1-0.5c0.7-0.2,1.3-0.2,1.8,0.2l0.9,0.9c0.2,0.2,0.2,0.2,0.2,0l1.3-1.3c0.2-0.2,0.2-0.2,0-0.2l-0.9-0.9 c-0.5-0.5-0.5-1.1-0.2-1.8c0.2-0.4,0.4-0.8,0.5-1.1c0.2-0.7,0.8-1.1,1.5-1.1h1.1c0.2,0,0.2-0.2,0.2-0.2v-1.7 c0-0.2-0.2-0.2-0.2-0.2h-1.1c-0.7,0-1.3-0.4-1.5-1.1C19.3,8.8,19.2,8.4,19,8c-0.2-0.7-0.2-1.3,0.2-1.8l0.9-0.9 c0.2-0.2,0.2-0.2,0-0.2l-1.3-1.3c-0.2-0.2-0.2-0.2-0.2,0l-0.9,0.9c-0.5,0.4-1.1,0.5-1.8,0.2c-0.4-0.2-0.8-0.4-1.1-0.5 c-0.7-0.2-1.1-0.8-1.1-1.5V1.8c0-0.2-0.2-0.2-0.2-0.2h-1.7c-0.2,0-0.2,0.2-0.2,0.2V3c0,0.7-0.4,1.3-1.1,1.5 C10,4.6,9.6,4.7,9.3,4.9C8.6,5.2,8,5.2,7.5,4.7L6.6,3.8c-0.2-0.2-0.2-0.2-0.2,0L5,5.1C4.9,5.3,4.9,5.3,5,5.3l0.9,0.9 C6.4,6.7,6.4,7.4,6.2,8C6,8.4,5.8,8.8,5.7,9.2c-0.2,0.7-0.8,1.1-1.5,1.1H3.1c-0.2,0-0.2,0.2-0.2,0.2v1.7c0,0.2,0.2,0.2,0.2,0.2 h1.1c0.7,0,1.3,0.4,1.5,1.1c0.2,0.4,0.2,0.8,0.5,1.1c0.2,0.7,0.2,1.3-0.2,1.8L5,17.3c-0.2,0.2-0.2,0.2,0,0.2l1.3,1.3 c0.2,0.2,0.2,0.2,0.2,0L7.5,18C7.6,17.7,8,17.6,8.5,17.6z"/></svg>