<svg id="Слой_1" xmlns="http://www.w3.org/2000/svg" width="15" height="16" viewBox="0 0 15 16"><path d="M11.4,2.5h2.8c0.2,0,0.4,0.1,0.5,0.2C14.9,2.9,15,3,15,3.3v0.4c0,0.1,0,0.2-0.1,0.3C14.8,4,14.7,4,14.6,4h-0.5	l-1,10.6c0,0.4-0.2,0.7-0.5,1c-0.3,0.3-0.6,0.4-1,0.4H3.4c-0.4,0-0.7-0.1-1-0.4c-0.3-0.3-0.4-0.6-0.5-1L0.9,4H0.4	C0.3,4,0.2,4,0.1,3.9C0,3.8,0,3.7,0,3.6V3.3C0,3,0.1,2.9,0.2,2.7c0.1-0.1,0.3-0.2,0.5-0.2h2.8l1.1-1.8C4.8,0.5,5,0.3,5.2,0.2	C5.4,0.1,5.7,0,5.9,0h3.1c0.3,0,0.5,0.1,0.8,0.2c0.2,0.1,0.4,0.3,0.6,0.5L11.4,2.5z M5.9,1.5l-0.6,1h4.4l-0.6-1H5.9z M11.6,14.5	l1-10.5H2.4l1,10.5H11.6z" fill="#02ffce"/></svg>