<svg id="Слой_1" xmlns="http://www.w3.org/2000/svg" width="24.8" height="20.2" viewBox="0 0 24.8 20.2"><style>.st0{fill:#fff}</style><path class="st0" d="M23.6,7V3.7c0-2-1.7-3.7-3.7-3.7H3.7C1.7,0,0,1.7,0,3.7v12.8c0,2,1.7,3.7,3.7,3.7h16.2c2,0,3.7-1.6,3.7-3.7v-3 c0.7-0.5,1.2-1.2,1.2-2.1V9C24.8,8.2,24.3,7.4,23.6,7z M23.3,11.4c0,0.6-0.5,1-1,1h-7.6c-0.6,0-1-0.5-1-1V9c0-0.6,0.5-1,1-1h7.6 c0.6,0,1,0.5,1,1V11.4z M19.9,18.7H3.7c-1.2,0-2.2-1-2.2-2.2V3.7c0-1.2,1-2.2,2.2-2.2h16.2c1.2,0,2.2,1,2.2,2.2v2.9h-7.4 c-1.3,0-2.5,1.2-2.5,2.5v2.4c0,1.3,1.2,2.5,2.5,2.5h7.4v2.6C22.1,17.7,21.1,18.7,19.9,18.7z"/><path class="st0" d="M14.9,9.7c-0.2,0.1-0.2,0.4-0.2,0.6c0,0.2,0,0.5,0.2,0.5c0.1,0.1,0.4,0.3,0.6,0.3c0.2,0,0.3-0.2,0.5-0.3 c0.1,0,0.3-0.3,0.3-0.5c0-0.3-0.1-0.4-0.3-0.6C15.7,9.4,15.2,9.4,14.9,9.7z"/></svg>